<svg width="21" height="20" viewBox="0 0 21 20" fill="none" xmlns="http://www.w3.org/2000/svg">
<g clip-path="url(#clip0)">
<circle cx="10.7197" cy="10" r="9" fill="#3F8CFF" stroke="white" stroke-width="2"/>
<path fill-rule="evenodd" clip-rule="evenodd" d="M10.72 5.83333C11.8238 5.83333 12.8863 6.27083 13.6654 7.05417C14.4488 7.83792 14.8867 8.89583 14.8867 10.0042C14.8867 11.4625 14.1196 12.8167 12.8696 13.5708C11.6196 14.325 10.0654 14.3667 8.77418 13.6792H8.76126C8.68994 13.6505 8.62654 13.6096 8.56348 13.5689C8.51638 13.5385 8.46947 13.5083 8.41959 13.4833C8.29084 13.4292 8.14459 13.4208 8.01168 13.4629C7.70293 13.5708 7.39043 13.6583 7.06959 13.7333C6.90293 13.7375 6.85293 13.6375 6.85293 13.475C6.92793 13.1458 7.02793 12.8204 7.14501 12.5042C7.19043 12.3667 7.17834 12.2208 7.10751 12.0912L7.02418 11.9292C6.71543 11.3417 6.55334 10.6875 6.55334 10.0254V10C6.55334 8.89583 6.99043 7.83333 7.77376 7.05417C8.55709 6.27083 9.61543 5.83333 10.72 5.83333ZM8.79876 10.5375C8.50292 10.5375 8.26542 10.2958 8.26542 10.0042C8.26542 9.70833 8.50292 9.47083 8.79876 9.47083C9.09042 9.47083 9.33251 9.70833 9.33251 10.0042C9.33251 10.2958 9.09042 10.5375 8.79876 10.5375ZM10.1863 10.0042C10.1863 10.2958 10.4242 10.5375 10.72 10.5375C11.0158 10.5375 11.2529 10.2958 11.2529 10.0042C11.2529 9.70833 11.0158 9.47083 10.72 9.47083C10.4242 9.47083 10.1863 9.70833 10.1863 10.0042ZM12.1075 10.0042C12.1075 10.2958 12.3488 10.5375 12.6404 10.5375C12.9363 10.5375 13.1738 10.2958 13.1738 10.0042C13.1738 9.70833 12.9363 9.47083 12.6404 9.47083C12.3488 9.47083 12.1075 9.70833 12.1075 10.0042Z" fill="white"/>
</g>
<defs>
<clipPath id="clip0">
<rect width="20" height="20" fill="white" transform="translate(0.719727)"/>
</clipPath>
</defs>
</svg>
