<svg width="24" height="24" viewBox="0 0 24 24" fill="none" xmlns="http://www.w3.org/2000/svg">
<g clip-path="url(#clip0)">
<path d="M13.2153 14.184C14.4387 14.184 15.4305 13.1922 15.4305 11.9687C15.4305 10.7452 14.4387 9.75342 13.2153 9.75342C11.9918 9.75342 11 10.7452 11 11.9687C11 13.1922 11.9918 14.184 13.2153 14.184Z" fill="#6C5DD3"/>
<path d="M13.2153 6.43055C14.4387 6.43055 15.4305 5.43874 15.4305 4.21527C15.4305 2.99181 14.4387 2 13.2153 2C11.9918 2 11 2.99181 11 4.21527C11 5.43874 11.9918 6.43055 13.2153 6.43055Z" fill="#6C5DD3"/>
<path d="M13.2153 21.9375C14.4387 21.9375 15.4305 20.9457 15.4305 19.7222C15.4305 18.4988 14.4387 17.507 13.2153 17.507C11.9918 17.507 11 18.4988 11 19.7222C11 20.9457 11.9918 21.9375 13.2153 21.9375Z" fill="#6C5DD3"/>
</g>
<defs>
<clipPath id="clip0">
<rect width="24" height="24" fill="white"/>
</clipPath>
</defs>
</svg>
