<svg width="21" height="20" viewBox="0 0 21 20" fill="none" xmlns="http://www.w3.org/2000/svg">
<g clip-path="url(#clip0)">
<circle cx="10.7197" cy="10" r="9" fill="#7FBA7A" stroke="white" stroke-width="2"/>
<path fill-rule="evenodd" clip-rule="evenodd" d="M14.1126 9.3802L14.4334 11.876C14.6714 13.5052 13.7251 14.1677 12.4543 14.1677H9.00011C7.72552 14.1677 6.75011 13.7094 7.01261 11.876L7.33761 9.3802C7.38761 9.00937 7.56677 8.66354 7.84594 8.40937C8.05886 8.22229 8.33344 8.12187 8.61677 8.12187V8.02604C8.58344 7.2552 8.97969 6.52604 9.64594 6.1302C10.3126 5.73437 11.1459 5.73437 11.8126 6.1302C12.4793 6.52604 12.8709 7.2552 12.8418 8.02604V8.12187C13.3668 8.12187 13.9209 8.48854 14.1126 9.3802ZM9.25011 8.02604C9.25011 7.21771 9.90844 6.55937 10.7209 6.55937C11.5376 6.55937 12.1959 7.21771 12.1959 8.02604V8.11812H9.25011V8.02604ZM9.1376 9.83021C9.1376 10.0302 9.30427 10.1969 9.50843 10.1969C9.7126 10.1969 9.8751 10.0302 9.8751 9.83021C9.8751 9.62604 9.7126 9.46354 9.50843 9.46354C9.30427 9.46354 9.1376 9.62604 9.1376 9.83021ZM11.9251 10.1969C12.0209 10.1969 12.1168 10.1594 12.1834 10.0885C12.2543 10.0219 12.2918 9.92604 12.2918 9.83021C12.2918 9.62604 12.1251 9.46354 11.9251 9.46354C11.7214 9.46354 11.5543 9.62604 11.5543 9.83021C11.5543 10.0302 11.7214 10.1969 11.9251 10.1969Z" fill="white"/>
</g>
<defs>
<clipPath id="clip0">
<rect width="20" height="20" fill="white" transform="translate(0.719727)"/>
</clipPath>
</defs>
</svg>
