<svg width="21" height="20" viewBox="0 0 21 20" fill="none" xmlns="http://www.w3.org/2000/svg">
<g clip-path="url(#clip0)">
<circle cx="10.7197" cy="10" r="9" fill="#FF754C" stroke="white" stroke-width="2"/>
<path fill-rule="evenodd" clip-rule="evenodd" d="M12.3238 6.04197C12.5867 6.04197 12.8492 6.07905 13.0988 6.1628C14.6367 6.6628 15.1909 8.3503 14.728 9.8253C14.4655 10.5791 14.0363 11.267 13.4742 11.8291C12.6697 12.6082 11.7867 13.2999 10.8363 13.8957L10.7322 13.9586L10.6238 13.8916C9.67007 13.2999 8.78215 12.6082 7.97007 11.8249C7.41174 11.2628 6.98215 10.5791 6.71549 9.8253C6.24465 8.3503 6.79882 6.6628 8.3534 6.15405C8.47424 6.11238 8.59882 6.08322 8.72382 6.06697H8.77382C8.8909 6.04988 9.00715 6.04197 9.12382 6.04197H9.16965C9.43215 6.04988 9.68632 6.09572 9.93257 6.17947H9.95715C9.97382 6.18738 9.98632 6.19613 9.99465 6.20405C10.0867 6.23363 10.1738 6.26697 10.2572 6.3128L10.4155 6.38363C10.4537 6.40404 10.4967 6.43522 10.5338 6.46216C10.5573 6.47924 10.5785 6.49461 10.5947 6.50447C10.6015 6.50848 10.6084 6.51251 10.6153 6.51658C10.6511 6.53744 10.6883 6.55916 10.7197 6.58322C11.1826 6.22947 11.7447 6.0378 12.3238 6.04197ZM13.4322 9.04197C13.603 9.03738 13.7488 8.9003 13.7613 8.72488V8.6753C13.7738 8.09155 13.4201 7.5628 12.8822 7.35864C12.7113 7.29989 12.5238 7.39197 12.4613 7.56697C12.403 7.74197 12.4947 7.93364 12.6697 7.99572C12.9367 8.09572 13.1155 8.35864 13.1155 8.64988V8.6628C13.1076 8.75822 13.1363 8.8503 13.1947 8.92113C13.253 8.99197 13.3405 9.03322 13.4322 9.04197Z" fill="white"/>
</g>
<defs>
<clipPath id="clip0">
<rect width="20" height="20" fill="white" transform="translate(0.719727)"/>
</clipPath>
</defs>
</svg>
