<svg width="21" height="20" viewBox="0 0 21 20" fill="none" xmlns="http://www.w3.org/2000/svg">
<g clip-path="url(#clip0)">
<circle cx="10.7197" cy="10" r="9" fill="#6C5DD3" stroke="white" stroke-width="2"/>
<path fill-rule="evenodd" clip-rule="evenodd" d="M12.7778 6.25C13.3366 6.25 13.8741 6.47083 14.2695 6.86708C14.6653 7.2625 14.8866 7.79583 14.8866 8.35417V11.6458C14.8866 12.8083 13.9407 13.75 12.7778 13.75H8.66156C7.49864 13.75 6.55322 12.8083 6.55322 11.6458V8.35417C6.55322 7.19167 7.49447 6.25 8.66156 6.25H12.7778ZM13.4407 8.975L13.4741 8.94167C13.5736 8.82084 13.5736 8.64584 13.4695 8.525C13.4116 8.46292 13.332 8.425 13.2491 8.41667C13.1616 8.41209 13.0782 8.44167 13.0153 8.5L11.1366 10C10.8949 10.2004 10.5486 10.2004 10.3032 10L8.42822 8.5C8.29864 8.40417 8.11947 8.41667 8.01155 8.52917C7.89905 8.64167 7.88655 8.82084 7.98197 8.94584L8.03655 9L9.93239 10.4792C10.1657 10.6625 10.4486 10.7625 10.7449 10.7625C11.0403 10.7625 11.3282 10.6625 11.5611 10.4792L13.4407 8.975Z" fill="white"/>
</g>
<defs>
<clipPath id="clip0">
<rect width="20" height="20" fill="white" transform="translate(0.719727)"/>
</clipPath>
</defs>
</svg>
