<svg width="22" height="22" viewBox="0 0 22 22" fill="none" xmlns="http://www.w3.org/2000/svg">
<path d="M18.5 15.5C17.9703 15.5026 17.4515 15.6505 17 15.9275L14.6825 13.6025C15.2218 12.8418 15.5114 11.9324 15.5114 11C15.5114 10.0676 15.2218 9.15818 14.6825 8.3975L17 6.0725C17.4515 6.34955 17.9703 6.49741 18.5 6.5C19.0933 6.5 19.6734 6.32405 20.1667 5.99441C20.6601 5.66477 21.0446 5.19623 21.2716 4.64805C21.4987 4.09987 21.5581 3.49667 21.4424 2.91473C21.3266 2.33279 21.0409 1.79824 20.6213 1.37868C20.2018 0.959123 19.6672 0.673401 19.0853 0.557646C18.5033 0.44189 17.9001 0.5013 17.352 0.728363C16.8038 0.955426 16.3352 1.33994 16.0056 1.83329C15.676 2.32664 15.5 2.90666 15.5 3.5C15.5026 4.0297 15.6505 4.54853 15.9275 5L13.6025 7.3175C12.8418 6.77825 11.9324 6.4886 11 6.4886C10.0676 6.4886 9.15818 6.77825 8.3975 7.3175L6.0725 5C6.34955 4.54853 6.49741 4.0297 6.5 3.5C6.5 2.90666 6.32405 2.32664 5.99441 1.83329C5.66477 1.33994 5.19623 0.955426 4.64805 0.728363C4.09987 0.5013 3.49667 0.44189 2.91473 0.557646C2.33279 0.673401 1.79824 0.959123 1.37868 1.37868C0.959123 1.79824 0.673401 2.33279 0.557646 2.91473C0.44189 3.49667 0.5013 4.09987 0.728363 4.64805C0.955426 5.19623 1.33994 5.66477 1.83329 5.99441C2.32664 6.32405 2.90666 6.5 3.5 6.5C4.0297 6.49741 4.54853 6.34955 5 6.0725L7.3175 8.3975C6.77825 9.15818 6.4886 10.0676 6.4886 11C6.4886 11.9324 6.77825 12.8418 7.3175 13.6025L5 15.9275C4.54853 15.6505 4.0297 15.5026 3.5 15.5C2.90666 15.5 2.32664 15.676 1.83329 16.0056C1.33994 16.3352 0.955426 16.8038 0.728363 17.352C0.5013 17.9001 0.44189 18.5033 0.557646 19.0853C0.673401 19.6672 0.959123 20.2018 1.37868 20.6213C1.79824 21.0409 2.33279 21.3266 2.91473 21.4424C3.49667 21.5581 4.09987 21.4987 4.64805 21.2716C5.19623 21.0446 5.66477 20.6601 5.99441 20.1667C6.32405 19.6734 6.5 19.0933 6.5 18.5C6.49741 17.9703 6.34955 17.4515 6.0725 17L8.3975 14.6825C9.15818 15.2218 10.0676 15.5114 11 15.5114C11.9324 15.5114 12.8418 15.2218 13.6025 14.6825L15.9275 17C15.6505 17.4515 15.5026 17.9703 15.5 18.5C15.5 19.0933 15.676 19.6734 16.0056 20.1667C16.3352 20.6601 16.8038 21.0446 17.352 21.2716C17.9001 21.4987 18.5033 21.5581 19.0853 21.4424C19.6672 21.3266 20.2018 21.0409 20.6213 20.6213C21.0409 20.2018 21.3266 19.6672 21.4424 19.0853C21.5581 18.5033 21.4987 17.9001 21.2716 17.352C21.0446 16.8038 20.6601 16.3352 20.1667 16.0056C19.6734 15.676 19.0933 15.5 18.5 15.5ZM11 14C10.4067 14 9.82664 13.8241 9.33329 13.4944C8.83994 13.1648 8.45543 12.6962 8.22836 12.1481C8.0013 11.5999 7.94189 10.9967 8.05765 10.4147C8.1734 9.83279 8.45912 9.29824 8.87868 8.87868C9.29824 8.45912 9.83279 8.1734 10.4147 8.05765C10.9967 7.94189 11.5999 8.0013 12.1481 8.22836C12.6962 8.45543 13.1648 8.83994 13.4944 9.33329C13.8241 9.82664 14 10.4067 14 11C14 11.7957 13.6839 12.5587 13.1213 13.1213C12.5587 13.6839 11.7957 14 11 14Z" fill="#6C5DD3"/>
</svg>
